<?xml version="1.0" encoding="utf-8"?>
<!-- Generator: Adobe Illustrator 19.0.0, SVG Export Plug-In . SVG Version: 6.00 Build 0)  -->
<svg version="1.1" id="OBJECTS" xmlns="http://www.w3.org/2000/svg" xmlns:xlink="http://www.w3.org/1999/xlink" x="0px" y="0px"
	 viewBox="0 0 541.4 387.7" style="enable-background:new 0 0 541.4 387.7;" xml:space="preserve">
<style type="text/css">
	.st0{fill:none;stroke:#C0CCD8;stroke-miterlimit:10;}
	.st1{fill:none;stroke:#C0CCD8;stroke-linejoin:round;stroke-miterlimit:10;}
	.st2{fill:none;stroke:#C0CCD8;stroke-width:3;stroke-miterlimit:10;}
	.st3{fill:#FFFFFF;stroke:#C0CCD8;stroke-linejoin:round;stroke-miterlimit:10;}
	.st4{fill:#4F3FA9;}
	.st5{fill:#3A3A3A;}
	.st6{fill:#C0CCD8;}
	.st7{fill:none;stroke:#C0CCD8;stroke-linecap:round;stroke-linejoin:round;stroke-miterlimit:10;}
	.st8{fill:#475577;}
	.st9{fill:#717A91;}
	.st10{fill:none;stroke:#544943;stroke-width:1.5;stroke-miterlimit:10;}
	.st11{opacity:0.45;}
	.st12{fill:#8E9DB2;}
	.st13{fill:#FFCBBB;}
	.st14{fill:#E6E8EF;}
	.st15{fill:#B9B5B2;}
	.st16{fill:none;stroke:#846A6A;stroke-miterlimit:10;}
	.st17{fill:#173789;}
	.st18{fill:#433AA0;}
	.st19{fill:none;stroke:#272F77;stroke-miterlimit:10;}
	.st20{fill:none;stroke:#272F77;stroke-miterlimit:10;stroke-dasharray:3,2;}
	.st21{fill:#E6E8EF;stroke:#846A6A;stroke-linejoin:round;stroke-miterlimit:10;}
	.st22{fill:#FFFFFF;}
	.st23{fill:none;stroke:#EF977F;stroke-miterlimit:10;}
	.st24{fill:#191919;}
	.st25{fill:#E7EAF2;}
	.st26{opacity:0.45;fill:#8E9DB2;}
	.st27{fill:#C6D2E0;}
	.st28{opacity:0.65;}
	.st29{opacity:0.55;}
	.st30{fill:url(#SVGID_1_);}
	.st31{fill:#E8EAEF;}
	.st32{fill:none;stroke:#475577;stroke-width:2;stroke-miterlimit:10;}
</style>
<g>
	<g>
		<g>
			<path class="st0" d="M277.5,98.4H160.1c-1.8,0-3.2-1.4-3.2-3.2V26.9c0-1.8,1.4-3.2,3.2-3.2h117.3c1.8,0,3.2,1.4,3.2,3.2v68.3
				C280.7,97,279.2,98.4,277.5,98.4z"/>
			<line class="st0" x1="156.9" y1="37.2" x2="280.7" y2="37.2"/>
			<circle class="st0" cx="164.9" cy="30.5" r="2"/>
			<circle class="st0" cx="173" cy="30.5" r="2"/>
			<circle class="st0" cx="181.2" cy="30.5" r="2"/>
		</g>
		<g>
			<g>
				<g>
					<path class="st1" d="M92,106.2h29.3c2.8,0,5.1-2.3,5.1-5.1V71.9c0-2.8-2.3-5.1-5.1-5.1H92c-2.8,0-5.1,2.3-5.1,5.1v29.3
						C86.9,103.9,89.2,106.2,92,106.2z"/>
				</g>
				<g>
					<circle class="st2" cx="106.6" cy="86.5" r="11.3"/>
					<line class="st2" x1="114.3" y1="78.5" x2="98.3" y2="94.5"/>
				</g>
			</g>
		</g>
		<path class="st3" d="M388.3,97.3l-8.2-8.5H254c-5.9,0-10.7-4.8-10.7-10.7V12.5c0-5.9,4.8-10.7,10.7-10.7h126.7
			c5.9,0,10.7,4.8,10.7,10.7V96C391.3,97.6,389.4,98.4,388.3,97.3z"/>
		<g>
			<g>
				<path class="st4" d="M294,59.5h-5.4V69h-13.1v-9.5h-19.6v-9.8l20.5-30h12.3v29.8h5.4V59.5z M275.4,49.5v-5.7
					c0-1.1,0-2.5,0.1-4.4c0.1-1.8,0.1-2.8,0.2-2.9h-0.4c-0.8,1.7-1.6,3.3-2.6,4.9l-5.5,8.1H275.4z"/>
				<path class="st5" d="M335,44.4c0,8.7-1.5,15.1-4.4,19.2c-2.9,4.1-7.4,6.1-13.4,6.1c-5.9,0-10.3-2.1-13.3-6.4
					c-3-4.2-4.5-10.5-4.5-18.9c0-8.8,1.5-15.2,4.4-19.3c2.9-4.1,7.4-6.1,13.4-6.1c5.9,0,10.3,2.1,13.3,6.4
					C333.5,29.7,335,36,335,44.4z M312.7,44.4c0,5.6,0.3,9.4,1,11.5c0.7,2.1,1.9,3.1,3.5,3.1c1.7,0,2.8-1.1,3.5-3.2
					c0.7-2.2,1-6,1-11.4c0-5.5-0.3-9.3-1-11.5c-0.7-2.2-1.9-3.3-3.5-3.3c-1.6,0-2.8,1.1-3.5,3.2C313,35,312.7,38.8,312.7,44.4z"/>
				<path class="st4" d="M378.8,59.5h-5.4V69h-13.1v-9.5h-19.6v-9.8l20.5-30h12.3v29.8h5.4V59.5z M360.3,49.5v-5.7
					c0-1.1,0-2.5,0.1-4.4c0.1-1.8,0.1-2.8,0.2-2.9h-0.4c-0.8,1.7-1.6,3.3-2.6,4.9l-5.5,8.1H360.3z"/>
			</g>
		</g>
		<g>
			<g>
				<g>
					<path class="st1" d="M507.1,221.3h29.3c2.8,0,5.1-2.3,5.1-5.1v-29.3c0-2.8-2.3-5.1-5.1-5.1h-29.3c-2.8,0-5.1,2.3-5.1,5.1v29.3
						C501.9,219,504.2,221.3,507.1,221.3z"/>
				</g>
				<g>
					<g>
						<path class="st6" d="M534.4,212.6c-0.1,0.1-0.3,0.1-0.5,0.1l-24.5,0c-0.5,0-1-0.3-1.2-0.7c-0.3-0.4-0.3-1,0-1.4l12.3-21.2
							c0.3-0.4,0.7-0.7,1.2-0.7c0.5,0,1,0.3,1.2,0.7l12.3,21.2c0.3,0.4,0.3,1,0,1.4C535,212.3,534.7,212.5,534.4,212.6z
							 M510.1,210.9l23.2,0l-11.6-20.1L510.1,210.9z"/>
					</g>
					<path class="st6" d="M521.7,206.6L521.7,206.6c-0.5,0-0.8-0.4-0.9-0.8l-0.5-8.4c0-0.8,0.6-1.4,1.4-1.4l0,0
						c0.8,0,1.4,0.6,1.4,1.4l-0.5,8.4C522.5,206.3,522.2,206.6,521.7,206.6z"/>
					<circle class="st6" cx="521.7" cy="208.7" r="0.9"/>
				</g>
			</g>
		</g>
		<circle class="st7" cx="2.2" cy="150.7" r="2.2"/>
		<circle class="st7" cx="376.6" cy="269.5" r="2.2"/>
		<circle class="st7" cx="529.7" cy="86.5" r="2.2"/>
		<circle class="st7" cx="409.4" cy="17.6" r="2.2"/>
		<path class="st0" d="M86.8,191.1H17.8c-1.2,0-2.2-1-2.2-2.2l0,0c0-1.2,1-2.2,2.2-2.2h69.1c1.2,0,2.2,1,2.2,2.2l0,0
			C89,190.2,88,191.1,86.8,191.1z"/>
		<path class="st0" d="M493.4,136h-69.1c-1.2,0-2.2-1-2.2-2.2l0,0c0-1.2,1-2.2,2.2-2.2h69.1c1.2,0,2.2,1,2.2,2.2l0,0
			C495.6,135,494.6,136,493.4,136z"/>
		<path class="st6" d="M503.5,150.7H478c-0.6,0-1.1-0.5-1.1-1.1l0,0c0-0.6,0.5-1.1,1.1-1.1h25.5c0.6,0,1.1,0.5,1.1,1.1l0,0
			C504.6,150.2,504.1,150.7,503.5,150.7z"/>
		<path class="st6" d="M435.9,98.6h-25.5c-0.6,0-1.1-0.5-1.1-1.1l0,0c0-0.6,0.5-1.1,1.1-1.1h25.5c0.6,0,1.1,0.5,1.1,1.1l0,0
			C437,98.1,436.5,98.6,435.9,98.6z"/>
		<path class="st6" d="M61.2,171.8H41.6c-0.6,0-1.1-0.5-1.1-1.1l0,0c0-0.6,0.5-1.1,1.1-1.1h19.5c0.6,0,1.1,0.5,1.1,1.1l0,0
			C62.2,171.3,61.8,171.8,61.2,171.8z"/>
		<g>
			<path class="st1" d="M455.3,75.4h21.1c2,0,3.7-1.7,3.7-3.7V50.6c0-2-1.7-3.7-3.7-3.7h-21.1c-2,0-3.7,1.7-3.7,3.7v21.1
				C451.6,73.8,453.2,75.4,455.3,75.4z"/>
			<g>
				<g>
					<path class="st6" d="M469.9,60l-0.5,2.5h2.7v2.2H469l-0.8,4.3h-2.3l0.8-4.3h-3l-0.8,4.3h-2.3l0.8-4.3h-2.5v-2.2h2.9l0.5-2.5
						h-2.7v-2.2h3.1l0.8-4.3h2.3l-0.8,4.3h3l0.8-4.3h2.3l-0.8,4.3h2.5V60H469.9z M464.1,62.4h3l0.5-2.5h-3L464.1,62.4z"/>
				</g>
			</g>
		</g>
	</g>
	<g>
		<g>
			<path class="st8" d="M225.5,272.9l-20-131.5h-90.3l21.6,139.3c1.5,9.4,9.3,16.1,19.1,16.1h151.8l1.1-12.8h-70.1
				C232,284.1,226.5,279.4,225.5,272.9z"/>
			<path class="st9" d="M140.1,272.9l-19.3-126.6c-0.4-2.9-2.8-4.9-5.7-4.9h-0.2c-4.1,0-7.5,3.9-6.9,7.8l20.4,131.5
				c1.5,9.4,9.3,16.1,19.1,16.1h97.8l1.1-12.8h-93.1C146.5,284.1,141,279.4,140.1,272.9z"/>
			<g>
				<g>
					<g>
						<line class="st10" x1="201.2" y1="296.8" x2="201.2" y2="368.6"/>
					</g>
					<g>
						<g>
							<path class="st10" d="M160.9,374.9L160.9,374.9c0-3.5,2.8-6.3,6.3-6.3h67.8c3.5,0,6.3,2.8,6.3,6.3v0"/>
						</g>
						<g>
							<path class="st10" d="M194.2,374.9L194.2,374.9c0-3.5,2.8-6.3,6.3-6.3"/>
						</g>
						<g>
							<g>
								<circle class="st9" cx="160.9" cy="381.3" r="6.4"/>
							</g>
							<g class="st11">
								<circle class="st12" cx="160.9" cy="381.3" r="2.4"/>
							</g>
						</g>
						<g>
							<circle class="st9" cx="194.2" cy="381.3" r="6.4"/>
						</g>
						<g class="st11">
							<circle class="st12" cx="194.2" cy="381.3" r="2.4"/>
						</g>
						<g>
							<g>
								<circle class="st9" cx="241.4" cy="381.3" r="6.4"/>
							</g>
							<g class="st11">
								<circle class="st12" cx="241.4" cy="381.3" r="2.4"/>
							</g>
						</g>
					</g>
				</g>
			</g>
		</g>
		<g>
			<g>
				<path class="st13" d="M271.8,155.5l22.9-34.2l7.1,1.5c-5.4,18.3-9,25.5-9,25.5"/>
				<path class="st13" d="M298.1,128.5l3.6-5.7c0,0,6.8-1.6,9.3-2.8c2.5-1.3,4.1-3.5,4.8-5.4c0.5-1.4,0.3-5.7-0.3-5.8
					c-1.5-0.2-4.4,5.3-5.7,5.6c-1.4,0.3-5.8,0-8.2,0.3c-4.1,0.5-5.8,4.4-5.8,4.4l-3.7,6.8"/>
				<polyline class="st14" points="286.7,131.3 290.7,125.5 301.1,130.2 297.8,139 				"/>
				<path class="st15" d="M203.2,119.1c0,0,16.9-7.8,31.9,5.5c14.9,13.3,25,25.6,30.5,29.6l22.5-25.9l12.6,5.9
					c-3.3,18.7-12.6,48.6-35.4,51.7c-24.6,3.3-60.7-27-60.7-27"/>
				<line class="st16" x1="258.3" y1="162.8" x2="265.6" y2="154.2"/>
			</g>
			<path class="st17" d="M294.2,376.9l-1.9,7.3c-0.5,1.8,0.9,3.5,2.7,3.5h22.1c1.3,0,2.4-1.1,2.4-2.4l0,0c0-1-0.7-2-1.7-2.3
				l-15.1-6.1"/>
			<path class="st13" d="M281.5,262.8c-3.5,37.2,12.8,114.1,12.8,114.1s3.9,4.7,8.6,0c0,0,3.9-73.4,8.1-106.4"/>
			<path class="st18" d="M228.7,219.3l25.4,13.3v0.3c0,0,51.9-3.5,59.7,15c12.3,29,14.4,123.3,14.4,123.3h-38c0,0-14.1-79.2-19-84
				c-4.8-4.8-24.7-4.5-61.4-4.5c-41.1,0-21.1-53-5.7-57.6"/>
			<path class="st19" d="M292.8,371.2c0,0-11.3-81.7-19.6-87.7c-10.1-7.3-57.9-2.5-57.9-2.5"/>
			<path class="st17" d="M214.7,376.9l-1.9,7.3c-0.5,1.8,0.9,3.5,2.7,3.5h22.1c1.3,0,2.4-1.1,2.4-2.4l0,0c0-1-0.7-2-1.7-2.3
				l-15.1-6.1"/>
			<path class="st13" d="M218.3,262.8c-3.5,37.2-3.7,114.1-3.7,114.1s3.9,4.7,8.6,0c0,0,13.3-73.4,17.5-106.4"/>
			<g>
				<path class="st4" d="M183.8,230.9c0,0,66.7,1.1,75.4,21.3c10.7,24.8-7,119-7,119h-40.2V287c0-1.6-1.3-3.1-2.9-3.1
					c-5.6,0.1-18,0.1-33.7,0.1c-41.1,0-21.1-64-5.7-68.6"/>
				<path class="st19" d="M183.8,230.9c0,0,66.7,1.1,75.4,21.3c2.9,6.7,4.4,18.2,3.6,31.8"/>
				<path class="st19" d="M217.7,371.2c0,0,0.4-84.5-1.5-89c-2.7-6.3-11.9-3.2-33.3-3.2c-41.1,0-24.4-58.9-9.1-63.4"/>
				<path class="st19" d="M158.2,241.2c0,0,21.1,0.5,24.3-2.7s0-17.7,0-17.7"/>
				<path class="st20" d="M157.7,244.1c0,0,24.1,0.5,27.8-2.7s0-17.7,0-17.7"/>
			</g>
			<g>
				<path class="st15" d="M153.7,143c0,0-5.1,89.9,2.6,89.9c7.7,0,92.8-0.3,97.8-0.3s-6.7-76.9-23.5-93.1c0,0-24.9-27.1-35.9-24.5
					C183.6,117.6,153.7,143,153.7,143z"/>
				<line class="st16" x1="248.7" y1="183.8" x2="238.1" y2="140.5"/>
			</g>
			<g>
				<path class="st13" d="M110.6,159.2L87.7,125l-7.1,1.5c5.4,18.3,9,25.5,9,25.5"/>
				<path class="st13" d="M84.2,132.2l-3.6-5.7c0,0-6.8-1.6-9.3-2.8c-2.5-1.3-4.1-3.5-4.8-5.4c-0.5-1.4-0.3-5.7,0.3-5.8
					c1.5-0.2,4.4,5.3,5.7,5.6c1.4,0.3,5.8,0,8.2,0.3c4.1,0.5,5.8,4.4,5.8,4.4l3.7,6.8"/>
				<polyline class="st14" points="95.6,135.1 91.6,129.2 81.2,133.9 84.5,142.7 				"/>
				<path class="st15" d="M185.1,119.7c0,0-16.7-11.9-34,2.7c-16.1,13.6-26.9,41.1-30.5,41.1c-2.5,0-18-19.8-27.3-31.9l-11,5.9
					c6.9,21.2,22.1,57.2,44.7,57.2c17.8,0,54.2-41.6,54.2-41.6"/>
				<line class="st16" x1="152.2" y1="181.4" x2="179.2" y2="158.9"/>
			</g>
			<g>
				<polyline class="st21" points="186.7,121.8 202.8,139 204.9,119.1 				"/>
				<path class="st13" d="M199.7,104.4l4.5,9.9c0,0,1.8,5.7-5.7,8.3c-8.3,2.8-13.3-2.9-13.3-2.9l-1.2-15.6"/>
				<path class="st22" d="M184.7,114c0,0,6,7.5,13.8,8.6l-5.7,8.4c-4.6-2.6-10.2-12.7-10.2-12.7L184.7,114z"/>
				<path class="st22" d="M203.7,112.9c0,0-1,5.3-5.2,9.6l6.5,4.9c1.5-3.7,1.3-9.4,1.3-9.4L203.7,112.9z"/>
				<path class="st13" d="M206.4,88.3c0,0,4.3,16.4-2.1,20.5c-6.4,4.1-17.6-2.2-18.2-4.2c-0.6-2.1-3.6-19.5,0.6-20.8
					C194.1,81.5,204.2,81.4,206.4,88.3z"/>
				<g>
					<g>
						<circle class="st17" cx="205.4" cy="93.8" r="0.8"/>
						<g>
							<path class="st17" d="M204.8,88.8c0.3,0,1.5,0.2,1.3,0.8c-0.1,0.3-0.6,0.3-0.8,0.3c-0.3,0-0.5-0.1-0.8,0
								c0.1,0.1,0.1,0.2,0.2,0.3c0.1,0.2-0.5,0.2-0.6,0.2c-0.6,0-1.4-0.1-2.1,0.4C202.4,88.9,204.3,88.7,204.8,88.8z"/>
						</g>
						<circle class="st17" cx="196.8" cy="95.9" r="0.8"/>
						<g>
							<path class="st17" d="M193.5,92.6c-0.6,0.3-1.1,0.8-1,1.3c0.1,0.4,0.5,0.3,0.7,0.1c0.4-0.3,0.9-0.6,1.4-0.7
								c-0.2,0.2-0.3,0.5-0.3,0.8c1.6-0.2,2.9-1.5,3.1-3.1c0,0.1-1,0.7-1.2,0.8C195.3,92.2,194.4,92.1,193.5,92.6z"/>
						</g>
					</g>
					<path class="st23" d="M202.1,94.6c0,0,2.3,5.7,1.5,6.2c-0.8,0.5-3.7,0.4-3.7,0.4"/>
				</g>
				<path class="st23" d="M202.2,109.8c0,0-6.5,2.5-12.2-2.1"/>
				<path class="st23" d="M198.5,106c0,0,0.6-2.5,4.7-2.5"/>
				<g>
					<path class="st24" d="M210,79.6c-0.1-0.8-0.2-1.6-0.7-2.2c-0.6-0.7-1.6-0.8-2.5-0.8c-3.1,0-6.3,1-8.8,2.8
						c0.7-0.6,1.4-1.2,2.1-1.8c0.6-0.5,1.8-1.2,1.2-2.1c-0.5-0.8-2-0.3-2.8-0.3c-3.6,0-7,1.2-10.3,2.5c-1.6,0.6-3.3,1.3-4.7,2.2
						c-1.5,0.9-2.8,2.2-3.5,3.8c-0.6,1.4-0.7,3-0.7,4.5c0,2.7,0.4,5.5,0.9,8.2c0.5,3,1.2,8.8,5.1,9.1c0.8,0.1,1.6,0.1,2.2-0.3
						c0.6-0.4,0.8-1.3,0.9-2c0.2-1.2,0.1-2.5-0.2-3.7c0.7,0.4,1.4,1.1,2.3,1c0.3,0,0.6-0.2,0.7-0.5c0.1-0.2,0-0.3,0-0.5
						c-0.3-2.8-0.5-5.6-0.7-8.5c4.1-0.9,8.1-1.6,12.2-2.2c1.8-0.3,3.7-0.6,5.2-1.8C209.9,85.2,210.2,82.2,210,79.6z"/>
				</g>
				<g>
					<path class="st13" d="M189,100.4c-0.7-1.7-1.9-3.7-3.7-2.5c-0.7,0.4-1,1.3-1.3,2.1c-0.8,2.7,1.1,7,3.8,6.6c1.3-0.2,2-1.8,2.6-3
						"/>
				</g>
			</g>
		</g>
	</g>
	<g>
		<g>
			<line class="st10" x1="79.4" y1="387.7" x2="111.5" y2="233.8"/>
			<line class="st10" x1="143.6" y1="387.7" x2="111.5" y2="233.8"/>
		</g>
		<g>
			<line class="st10" x1="403.7" y1="387.7" x2="435.9" y2="233.8"/>
			<line class="st10" x1="468" y1="387.7" x2="435.9" y2="233.8"/>
		</g>
		<rect x="80.4" y="224.5" class="st25" width="383.6" height="9.2"/>
		<g>
			<path class="st8" d="M445.5,207H310c-2.4,0-4.2-2.2-3.8-4.6l15.6-87.6c0.5-2.8,2.9-4.8,5.7-4.8H463c2.4,0,4.2,2.2,3.8,4.6
				l-15.6,87.6C450.8,205,448.4,207,445.5,207z"/>
			<path class="st6" d="M448.7,207H313.1c-2.4,0-4.2-2.2-3.8-4.6l15.6-87.6c0.5-2.8,2.9-4.8,5.7-4.8h135.6c2.4,0,4.2,2.2,3.8,4.6
				l-15.6,87.6C453.9,205,451.5,207,448.7,207z"/>
			<path class="st26" d="M423.7,207h-78.3c-1.4,0-2.5-1.3-2.2-2.6l9-50.6c0.3-1.6,1.7-2.8,3.3-2.8h78.3c1.4,0,2.5,1.3,2.2,2.6
				l-9,50.6C426.8,205.8,425.4,207,423.7,207z"/>
			<path class="st27" d="M425.6,207h-78.3c-1.4,0-2.5-1.3-2.2-2.6l9-50.6c0.3-1.6,1.7-2.8,3.3-2.8h78.3c1.4,0,2.5,1.3,2.2,2.6
				l-9,50.6C428.6,205.8,427.3,207,425.6,207z"/>
			<rect x="376.5" y="177.2" class="st12" width="31.8" height="29.8"/>
			<path class="st8" d="M406.4,177.2h-30v8.5l8.2,33.9h31.8L406.4,177.2z M398.8,210.7c-3.6,0-7.3-4.2-8.4-9.3
				c-1.1-5.1,0.9-9.3,4.5-9.3c3.6,0,7.3,4.2,8.4,9.3S402.3,210.7,398.8,210.7z"/>
			<path class="st8" d="M359,219.7h71.2v4.8h-76l0,0C354.1,221.9,356.3,219.7,359,219.7z"/>
			<rect x="373.2" y="219.7" class="st6" width="56.9" height="4.8"/>
			<path class="st6" d="M408.3,177.2h-31.8l10,42.5h31.8L408.3,177.2z M400.5,210.7c-3.6,0-7.3-4.2-8.4-9.3
				c-1.1-5.1,0.9-9.3,4.5-9.3c3.6,0,7.3,4.2,8.4,9.3C406.1,206.5,404,210.7,400.5,210.7z"/>
			<g class="st28">
				<polygon class="st12" points="334,118.6 332.2,129.2 334,129.2 335.9,118.6 				"/>
				<polygon class="st12" points="339.5,118.6 337.6,129.2 339.5,129.2 341.4,118.6 				"/>
				<polygon class="st12" points="344.9,118.6 343.1,129.2 344.9,129.2 346.8,118.6 				"/>
				<polygon class="st12" points="350.4,118.6 348.5,129.2 350.4,129.2 352.3,118.6 				"/>
				<polygon class="st12" points="355.8,118.6 354,129.2 355.8,129.2 357.7,118.6 				"/>
			</g>
			<g class="st28">
				<polygon class="st12" points="405.6,118.6 403.7,129.2 405.6,129.2 407.4,118.6 				"/>
				<polygon class="st12" points="411.3,118.6 409.4,129.2 411.3,129.2 413.2,118.6 				"/>
				<polygon class="st12" points="417,118.6 415.1,129.2 417,129.2 418.9,118.6 				"/>
				<polygon class="st12" points="422.7,118.6 420.9,129.2 422.7,129.2 424.6,118.6 				"/>
				<polygon class="st12" points="428.5,118.6 426.6,129.2 428.5,129.2 430.4,118.6 				"/>
				<polygon class="st12" points="434.2,118.6 432.3,129.2 434.2,129.2 436.1,118.6 				"/>
				<polygon class="st12" points="439.9,118.6 438,129.2 439.9,129.2 441.8,118.6 				"/>
				<polygon class="st12" points="445.7,118.6 443.8,129.2 445.7,129.2 447.5,118.6 				"/>
				<polygon class="st12" points="451.4,118.6 449.5,129.2 451.4,129.2 453.3,118.6 				"/>
				<polygon class="st12" points="457.1,118.6 455.2,129.2 457.1,129.2 459,118.6 				"/>
			</g>
		</g>
		<g>
			<g class="st29">
				<linearGradient id="SVGID_1_" gradientUnits="userSpaceOnUse" x1="201.1402" y1="200.5312" x2="201.1402" y2="172.9265">
					<stop  offset="0" style="stop-color:#FFFFFF;stop-opacity:0.1"/>
					<stop  offset="1" style="stop-color:#FFFFFF;stop-opacity:0.4"/>
				</linearGradient>
				<path class="st30" d="M188.5,200.5c0,0,0.9-0.2,1.2-0.7c0.7-1-0.5-2.1-1.3-2.6c-1-0.7-2.4-0.9-2.9-2.1c-0.6-1.4,0.4-3,1.6-3.8
					c1-0.7,2.1-1,3.3-1.4c1.2-0.5,2.5-1.2,3.2-2.4c0.9-1.4,0.7-3.3,0.8-4.9c0.5-6.4,7-9.5,12.5-9.7c2.7-0.1,6.9,0.9,8.8,3.1
					c0.6,0.7,1.1,1.6,1.3,2.5c0.3,1.4-0.3,2.8-1.2,3.8c-0.9,1.1-2.2,1.7-3.3,2.7c-1.1,1-0.3,2.1-0.6,3.3c-0.3,1.3-1.2,1.9-2.3,2.5
					c-2.4,1.4-5.3,1.7-8,2.4c-0.8,0.2-1.7,0.5-2.3,1c-0.9,0.7-1.4,1.7-2,2.6c-1.2,1.6-3,2.8-5,3.2"/>
			</g>
			<g>
				<g>
					<path class="st31" d="M203.8,216.6h-5.2v-2.5h5.2c1.7,0,3-1.4,3-3v-4.3c0-1.7-1.4-3-3-3h-5.2v-2.5h5.2c3.1,0,5.5,2.5,5.5,5.5
						v4.3C209.3,214.1,206.8,216.6,203.8,216.6z"/>
				</g>
			</g>
			<path class="st31" d="M196.3,223.1h-8.8c-3.4,0-6.1-2.7-6.1-6.1v-19.3h21V217C202.4,220.4,199.7,223.1,196.3,223.1z"/>
			<path class="st27" d="M178,219.6c0,0,0.2,4.9,7.9,4.9H198c7.7,0,7.9-4.9,7.9-4.9H178z"/>
		</g>
		<g id="XMLID_30_">
			<g id="XMLID_96_">
				<g>
					<rect id="XMLID_104_" x="235.8" y="222.6" class="st8" width="111.3" height="2"/>
					<rect id="XMLID_103_" x="239.6" y="221" class="st8" width="8" height="1.6"/>
					<rect id="XMLID_102_" x="251.6" y="221" class="st8" width="8" height="1.6"/>
					<rect id="XMLID_101_" x="263.7" y="221" class="st8" width="8" height="1.6"/>
					<rect id="XMLID_100_" x="275.8" y="221" class="st8" width="8" height="1.6"/>
					<rect id="XMLID_99_" x="287.9" y="221" class="st8" width="8" height="1.6"/>
					<rect id="XMLID_98_" x="299.9" y="221" class="st8" width="8" height="1.6"/>
					<rect id="XMLID_97_" x="312" y="221" class="st8" width="8" height="1.6"/>
					<rect id="XMLID_94_" x="324.1" y="221" class="st8" width="8" height="1.6"/>
					<rect id="XMLID_93_" x="336.1" y="221" class="st8" width="8" height="1.6"/>
				</g>
			</g>
			<g id="XMLID_51_">
				<g>
					<rect id="XMLID_92_" x="237.2" y="222.6" class="st6" width="111.3" height="2"/>
					<rect id="XMLID_91_" x="241" y="221" class="st6" width="8" height="1.6"/>
					<rect id="XMLID_90_" x="253.1" y="221" class="st6" width="8" height="1.6"/>
					<rect id="XMLID_89_" x="265.2" y="221" class="st6" width="8" height="1.6"/>
					<rect id="XMLID_88_" x="277.2" y="221" class="st6" width="8" height="1.6"/>
					<rect id="XMLID_87_" x="289.3" y="221" class="st6" width="8" height="1.6"/>
					<rect id="XMLID_86_" x="301.4" y="221" class="st6" width="8" height="1.6"/>
					<rect id="XMLID_85_" x="313.5" y="221" class="st6" width="8" height="1.6"/>
					<rect id="XMLID_84_" x="325.5" y="221" class="st6" width="8" height="1.6"/>
					<rect id="XMLID_83_" x="337.6" y="221" class="st6" width="8" height="1.6"/>
				</g>
			</g>
		</g>
	</g>
	<line class="st32" x1="27.8" y1="387.7" x2="538.2" y2="387.7"/>
</g>
</svg>
