<?xml version="1.0" encoding="utf-8"?>
<!-- Generator: Adobe Illustrator 19.0.0, SVG Export Plug-In . SVG Version: 6.00 Build 0)  -->
<svg version="1.1" id="illustration" xmlns="http://www.w3.org/2000/svg" xmlns:xlink="http://www.w3.org/1999/xlink" x="0px"
	 y="0px" viewBox="364 25.5 1324.1 790.4" style="enable-background:new 364 25.5 1324.1 790.4;" xml:space="preserve">
<style type="text/css">
	.st0{fill:#FFFFFF;}
	.st1{clip-path:url(#SVGID_5_);}
	.st2{clip-path:url(#SVGID_6_);fill:url(#SVGID_7_);}
	.st3{fill:#DBDBDB;}
	.st4{fill:#232323;}
	.st5{fill:#C4C4C4;}
	.st6{fill:#FFAA9D;}
	.st7{fill:#0B2252;}
	.st8{fill:url(#SVGID_8_);}
	.st9{fill:url(#SVGID_9_);}
	.st10{fill:url(#SVGID_10_);}
	.st11{fill:#FF9F91;}
	.st12{fill:#14336A;}
	.st13{fill:url(#SVGID_11_);}
	.st14{fill:#C0CCD8;}
	.st15{fill:none;stroke:#C0CCD8;stroke-linecap:round;stroke-linejoin:round;stroke-miterlimit:10;}
	.st16{fill:none;stroke:#C0CCD8;stroke-width:3;stroke-miterlimit:10;}
</style>
<g>
	<path class="st0" d="M1353.9,134.5c8.1-8.1,19.4-13.2,31.8-13.2h44.7c6.7-30.6,33.9-53.6,66.6-53.6c32.6,0,59.9,23,66.6,53.6h12
		c12.4,0,23.7,5,31.8,13.2c8.1,8.1,13.2,19.4,13.2,31.8l0,0c0,13.7-6.2,26-15.9,34.3c-7.8,6.7-18,10.7-29.1,10.7h-189.8
		c-12.4,0-23.7-5-31.8-13.2c-8.1-8.1-13.2-19.4-13.2-31.8l0,0C1340.7,153.9,1345.7,142.6,1353.9,134.5z"/>
	<path class="st0" d="M784.7,183.4c-3.9-3.9-9.2-6.3-15.1-6.3h-21.3c-3.2-14.6-16.1-25.5-31.6-25.5s-28.5,10.9-31.6,25.5h-5.7
		c-5.9,0-11.2,2.4-15.1,6.3c-3.9,3.9-6.3,9.2-6.3,15.1l0,0c0,6.5,2.9,12.4,7.5,16.3c3.7,3.2,8.6,5.1,13.8,5.1h90.2
		c5.9,0,11.2-2.4,15.1-6.3c3.9-3.9,6.3-9.2,6.3-15.1l0,0C791,192.6,788.6,187.2,784.7,183.4z"/>
	<g>
		<g>
			<g>
				<defs>
					<polygon id="SVGID_3_" points="365,26.5 366,26.5 365,27.5 					"/>
				</defs>
				<defs>
					<polygon id="SVGID_4_" points="363,24.5 362,24.5 363,23.5 					"/>
				</defs>
				<clipPath id="SVGID_5_">
					<use xlink:href="#SVGID_3_"  style="overflow:visible;"/>
				</clipPath>
				<clipPath id="SVGID_6_" class="st1">
					<use xlink:href="#SVGID_4_"  style="overflow:visible;"/>
				</clipPath>
				
					<radialGradient id="SVGID_7_" cx="718.9025" cy="487.2931" r="359.8267" gradientTransform="matrix(1.5606 0 0 -4.5388 -78.9192 2990.7156)" gradientUnits="userSpaceOnUse">
					<stop  offset="0" style="stop-color:#FFFFFF"/>
					<stop  offset="0.9872" style="stop-color:#000000"/>
				</radialGradient>
				<ellipse class="st2" cx="1043" cy="779" rx="542" ry="36.9"/>
			</g>
		</g>
		<ellipse class="st3" cx="1043" cy="779" rx="542" ry="36.9"/>
		<g>
			<g>
				<path class="st4" d="M610,630.4c3.6,19.7,10.5,35,20.6,45.7c10.2,10.7,25,16.1,44.5,16.1c22.5,0,39.5-7.9,51.3-23.7
					c11.7-15.8,17.6-35.7,17.6-59.7c0-23.6-5.5-43.5-16.5-59.7s-28.2-24.4-51.5-24.4c-11,0-20.5,1.4-28.6,4.1
					c-14.2,5.1-24.9,14.5-32.1,28.3l-81.3-3.8l32.4-255h254v77.1H631.9l-16.5,100.9c14-9.1,24.9-15.2,32.7-18.1
					c13.1-4.9,29.2-7.3,48-7.3c38.2,0,71.4,12.8,99.8,38.5c28.4,25.7,42.6,63,42.6,112.1c0,42.7-13.7,80.8-41,114.3
					c-27.4,33.5-68.3,50.3-122.8,50.3c-43.9,0-79.9-11.8-108.1-35.3c-28.2-23.6-43.9-57-47.1-100.3L610,630.4L610,630.4z"/>
				<path class="st5" d="M1168.3,351.2c23.7,41.4,35.5,100.2,35.5,176.4s-11.8,134.9-35.5,176.1c-23.7,41.2-64.9,61.8-123.7,61.8
					c-58.8,0-100-20.6-123.7-61.8s-35.5-99.9-35.5-176.1s11.8-135,35.5-176.4s64.9-62.1,123.7-62.1
					C1103.4,289.1,1144.6,309.8,1168.3,351.2z M991.1,649.4c8.7,28.1,26.5,42.2,53.5,42.2s44.6-14.1,53-42.2
					c8.4-28.1,12.6-68.7,12.6-121.8c0-55.6-4.2-96.8-12.6-123.5s-26.1-40.1-53-40.1c-27,0-44.8,13.4-53.5,40.1S978,472,978,527.6
					C978,580.7,982.4,621.3,991.1,649.4z"/>
				<path class="st5" d="M1530.9,351.2c23.7,41.4,35.5,100.2,35.5,176.4s-11.8,134.9-35.5,176.1s-64.9,61.8-123.7,61.8
					s-100-20.6-123.7-61.8c-23.6-41.2-35.5-99.9-35.5-176.1s11.8-135,35.5-176.4s64.9-62.1,123.7-62.1
					C1466,289.1,1507.3,309.8,1530.9,351.2z M1353.7,649.4c8.7,28.1,26.5,42.2,53.5,42.2s44.6-14.1,53-42.2
					c8.4-28.1,12.6-68.7,12.6-121.8c0-55.6-4.2-96.8-12.6-123.5s-26.1-40.1-53-40.1c-27,0-44.8,13.4-53.5,40.1
					s-13.1,67.9-13.1,123.5C1340.7,580.7,1345,621.3,1353.7,649.4z"/>
			</g>
			<g>
				<polygon class="st6" points="1293,752.6 1296,767.9 1244.5,767.9 1241.3,752.6 				"/>
				<path class="st7" d="M1296,767.9l2.4,12c0.2,0.8-0.4,1.5-1.2,1.5h-57.7c-0.7,0-1.2-0.7-0.9-1.4l5.8-12.1H1296z"/>
				<polygon class="st6" points="1214.8,752.6 1217.8,767.9 1166.3,767.9 1163,752.6 				"/>
				<path class="st7" d="M1217.8,767.9l2.4,12c0.2,0.8-0.4,1.5-1.2,1.5h-57.7c-0.7,0-1.2-0.7-0.9-1.4l5.8-12.1H1217.8z"/>
				
					<linearGradient id="SVGID_8_" gradientUnits="userSpaceOnUse" x1="393.3907" y1="77.7982" x2="390.9765" y2="241.2359" gradientTransform="matrix(-1 0 0 -1 1620.5128 840.87)">
					<stop  offset="0" style="stop-color:#E5A951"/>
					<stop  offset="0.9662" style="stop-color:#D9822E"/>
				</linearGradient>
				<path class="st8" d="M1298.1,513c0,0-15.2,111.6-10.4,161.7c4.8,50.1,10.1,83.7,10.1,83.7h-58.7c0,0-15.5-62.9-16.5-100.3
					c0,0-9.6,49.1-3.7,100.3h-57.1c0,0-15.7-178.9,17.4-246.6L1298.1,513z"/>
				
					<linearGradient id="SVGID_9_" gradientUnits="userSpaceOnUse" x1="1265.6071" y1="442.9214" x2="1247.4119" y2="376.5627" gradientTransform="matrix(1 0 0 -1 0 840.87)">
					<stop  offset="0" style="stop-color:#4F3FA9"/>
					<stop  offset="0.9649" style="stop-color:#272F77"/>
				</linearGradient>
				<path class="st9" d="M1222.1,339.6c0,0,55.3,8.8,75.8,56.6c20.5,47.9,11.8,64.5,4.2,72.1c-7.5,7.6-22.7,14.7-22.7,14.7
					L1222.1,339.6z"/>
				
					<linearGradient id="SVGID_10_" gradientUnits="userSpaceOnUse" x1="1269.4178" y1="429.943" x2="1144.0828" y2="316.5414" gradientTransform="matrix(1 0 0 -1 0 840.87)">
					<stop  offset="0" style="stop-color:#4F3FA9"/>
					<stop  offset="0.9649" style="stop-color:#272F77"/>
				</linearGradient>
				<path class="st10" d="M1167.8,534.5c6,8,132.5,2.9,135.4-17.5c2.9-20.4-22.1-148.2-48.6-166.1c-24.8-16.8-42.1-13.5-58.2-9.7
					c-16,3.8-25.6,34.2-27.2,62.8C1167.7,432.5,1161.7,526.3,1167.8,534.5z"/>
				<g>
					<path class="st6" d="M1180,306.1l-2.8,19.9l3,0.3c0,0,0.3,16.8,12.3,15.7c3.4-0.3,8.1-2.6,9.2-1.9c1.4,0.9,1.4,5.5,1.6,6.8
						c0.6,5.2,18.8,2.3,16.6-3.2c-2.1-5.2-5.3-12.4-4.2-14.1c3.8-6.1,6.6-22-8.8-29.3C1194.7,294.4,1181,299.3,1180,306.1z"/>
					<path class="st11" d="M1220,343.7c-2.1-5.2-5.3-12.4-4.2-14.1c0,0-8.1,9.6-14.5,10.4l0,0c0.2,0,0.4,0,0.5,0.1
						c1.4,0.9,1.4,5.5,1.6,6.8C1204.1,352,1222.2,349.1,1220,343.7z"/>
					<path class="st12" d="M1205.8,319.2c7.7-0.4,0.9,15.8,9.3,16.3s16.4-16.9,12-31.7c-4.3-14.7-16-15.4-27.3-14.9
						c-11.3,0.5-25.4,3.8-26.4,12.2c-2.5,20.1,23.4,6.2,24.2,12.4c0.6,4.8,0.8,18.5-4.1,18.3c-4.9-0.3-9.3-4.9-13.3-4.3
						c-2.3,0.3-11.6,25.9,4.1,28.7c15.5,2.8,21.2-10.5,19.3-22.2C1202,322.9,1202.1,319.4,1205.8,319.2z"/>
				</g>
				<path class="st6" d="M1043.6,378.8c0,0-12.8-22.3-15.3-31.5c-2.5-9.3-3.4-13.4-1.2-13.9s14.6,15.4,16.8,15.1
					c2.2-0.4,2.5-4.1,5-4.5s7.1,16.1,10.1,16.6C1061.8,361.1,1047.5,378.5,1043.6,378.8z"/>
				
					<linearGradient id="SVGID_11_" gradientUnits="userSpaceOnUse" x1="1109.2234" y1="490.7804" x2="1009.1616" y2="400.2458" gradientTransform="matrix(0.9874 -0.1585 -0.1585 -0.9874 143.2804 1019.1476)">
					<stop  offset="0" style="stop-color:#4F3FA9"/>
					<stop  offset="0.9649" style="stop-color:#272F77"/>
				</linearGradient>
				<path class="st13" d="M1060.2,354.2l-20,23.1c0,0,30.6,59.2,91.9,60.7c61.3,1.6,114-31,112.7-69.4c-1-30.4-53.7-7.4-72.7,2
					S1116.6,394.7,1060.2,354.2z"/>
			</g>
		</g>
	</g>
</g>
<g>
	<g>
		<g>
			<g>
				<path class="st14" d="M1666.9,603.4c-0.3,0.1-0.7,0.2-1,0.2h-54.2c-1.1,0-2.2-0.6-2.8-1.6c-0.6-1-0.6-2.2,0-3.2l27.1-47
					c0.6-1,1.6-1.6,2.8-1.6c1.1,0,2.2,0.6,2.8,1.6l27.1,47c0.6,1,0.6,2.2,0,3.2C1668.2,602.7,1667.6,603.2,1666.9,603.4z
					 M1613.1,599.6h51.2l-25.6-44.4L1613.1,599.6z"/>
			</g>
			<path class="st14" d="M1638.7,590.2L1638.7,590.2c-1,0-1.9-0.8-1.9-1.8l-1.1-18.5c-0.1-1.7,1.3-3.1,3-3.1l0,0
				c1.7,0,3.1,1.4,3,3.1l-1.1,18.5C1640.6,589.4,1639.7,590.2,1638.7,590.2z"/>
			<circle class="st14" cx="1638.7" cy="594.7" r="2"/>
		</g>
	</g>
</g>
<path class="st15" d="M1089.3,146.8c1,29.7-23.4,54-53.1,53.1c-26.9-0.9-48.9-22.8-49.7-49.7c-0.9-29.7,23.4-54,53.1-53.1
	C1066.5,98,1088.4,119.9,1089.3,146.8z"/>
<path class="st15" d="M460.7,567.1c0.4,12-9.4,21.8-21.4,21.4c-10.9-0.3-19.7-9.2-20.1-20.1c-0.4-12,9.4-21.8,21.4-21.4
	C451.5,547.4,460.3,556.2,460.7,567.1z"/>
<g>
	<g>
		<g>
			<circle class="st16" cx="469.2" cy="167.5" r="18.9"/>
			<line class="st16" x1="482" y1="154.1" x2="455.2" y2="180.8"/>
		</g>
	</g>
</g>
<path class="st14" d="M1284.5,205.2H1259c-0.6,0-1.1-0.5-1.1-1.1l0,0c0-0.6,0.5-1.1,1.1-1.1h25.5c0.6,0,1.1,0.5,1.1,1.1l0,0
	C1285.6,204.7,1285.1,205.2,1284.5,205.2z"/>
</svg>
