<?xml version="1.0"?>
<svg xmlns="http://www.w3.org/2000/svg" xmlns:xlink="http://www.w3.org/1999/xlink" xmlns:svgjs="http://svgjs.com/svgjs" version="1.1" width="512" height="512" x="0" y="0" viewBox="0 0 32 32" style="enable-background:new 0 0 512 512" xml:space="preserve" class=""><g><g xmlns="http://www.w3.org/2000/svg" id="_x30_3-book"><g><path d="m26.9 24.7v-21.6c0-.6-.4-1-1-1l-17.8-.1c-1.7 0-3 1.4-3 3v21.8c0 1.8 1.4 3.2 3.2 3.2h17.6c.3 0 .7-.2.9-.5s.2-.7 0-1c-.6-1.2-.6-2.3 0-3.5 0 0 .1-.1.1-.3zm-2.4 3.3h-16.2c-.7 0-1.2-.5-1.2-1.2s.5-1.2 1.2-1.2h16.2c-.2.8-.2 1.6 0 2.4zm.4-4.4h-16.6c-.4 0-.8.1-1.2.2v-18.8c0-.6.5-1 1-1h16.8z" fill="#7f7f7f" data-original="#000000" style="" class=""/><path d="m11.9 10h8.2c.6 0 1-.4 1-1s-.4-1-1-1h-8.2c-.6 0-1 .4-1 1s.5 1 1 1z" fill="#7f7f7f" data-original="#000000" style="" class=""/><path d="m11.9 14.1h8.2c.6 0 1-.4 1-1s-.4-1-1-1h-8.2c-.6 0-1 .4-1 1s.5 1 1 1z" fill="#7f7f7f" data-original="#000000" style="" class=""/><path d="m11.9 18.1h8.2c.6 0 1-.4 1-1s-.4-1-1-1h-8.2c-.6 0-1 .4-1 1s.5 1 1 1z" fill="#7f7f7f" data-original="#000000" style="" class=""/></g></g></g></svg>
