<?xml version="1.0"?>
<svg xmlns="http://www.w3.org/2000/svg" xmlns:xlink="http://www.w3.org/1999/xlink" xmlns:svgjs="http://svgjs.com/svgjs" version="1.1" width="512" height="512" x="0" y="0" viewBox="0 0 512 512" style="enable-background:new 0 0 512 512" xml:space="preserve" class=""><g><path xmlns="http://www.w3.org/2000/svg" d="m503.25 145.411-240-122a15.993 15.993 0 0 0 -14.5 0l-240 122a16 16 0 0 0 0 28.526l60.45 30.726c-.01.226-.034.448-.034.677v190.484a16 16 0 0 0 9.319 14.539l170.837 78.5a16 16 0 0 0 13.362 0l170.837-78.5a16 16 0 0 0 9.319-14.539v-190.5l37.16-18.748v95.806a16 16 0 1 0 32 0v-122.708a16 16 0 0 0 -8.75-14.263zm-92.413 240.157-154.837 71.148-154.837-71.148v-164.655l147.587 75.023a16 16 0 0 0 14.457.022l147.63-74.486zm-154.81-121.83-204.718-104.064 204.691-104.05 205.484 104.453z" fill="#7f7f7f" data-original="#000000" style="" class=""/></g></svg>
