<?xml version="1.0" encoding="utf-8"?>
<!-- Generator: Adobe Illustrator 24.1.0, SVG Export Plug-In . SVG Version: 6.00 Build 0)  -->
<svg version="1.1" id="Layer_1" xmlns="http://www.w3.org/2000/svg" xmlns:xlink="http://www.w3.org/1999/xlink" x="0px" y="0px"
	 viewBox="0 0 120 120" style="enable-background:new 0 0 120 120;" xml:space="preserve">
<style type="text/css">
	.st0{fill:#939393;}
	.st1{fill:#FFFFFF;}
	.st2{fill:#BABABA;}
	.st3{fill:#9B9B9B;}
	.st4{fill:#898989;}
</style>
<g id="_x30_25---Live-Recording" transform="translate(0 -1)">
	<path id="Shape" class="st0" d="M84.35,66c0.61-0.14,1.26,0,1.75,0.39c0.49,0.39,0.79,0.98,0.79,1.61v25.05
		c-0.04,3.38-2.1,6.4-5.23,7.68c-1.97,0.86,1.41,0.6-73.39,0.6C3.72,101.3,0.03,97.61,0,93.05V62.02c0-4.57,3.71-8.28,8.28-8.28
		h64.36c0.63,0.01,1.22,0.3,1.61,0.79c0.39,0.49,0.53,1.14,0.39,1.75c-0.54,2.71,0.3,5.51,2.25,7.46
		C78.85,65.7,81.65,66.54,84.35,66L84.35,66z"/>
	<g>
		<path id="Shape_1_" class="st1" d="M28.97,93.05c-1.14,0-2.07-0.93-2.07-2.07v-26.9c0-1.14,0.93-2.07,2.07-2.07
			c1.14,0,2.07,0.93,2.07,2.07v26.9C31.04,92.13,30.11,93.05,28.97,93.05z"/>
		<path id="Shape_2_" class="st1" d="M45.52,93.05h-2.07c-0.96,0-1.8-0.66-2.02-1.6l-6.21-26.9c-0.26-1.11,0.44-2.23,1.55-2.48
			c1.11-0.26,2.23,0.44,2.48,1.55l5.22,22.64l5.22-22.64c0.17-0.72,0.7-1.3,1.41-1.51c0.71-0.22,1.48-0.04,2.02,0.47
			c0.54,0.5,0.77,1.26,0.61,1.98l-6.21,26.9C47.32,92.39,46.48,93.05,45.52,93.05z"/>
		<path id="Shape_3_" class="st1" d="M70.35,93.05H60c-1.14,0-2.07-0.93-2.07-2.07v-26.9c0-1.14,0.93-2.07,2.07-2.07
			s2.07,0.93,2.07,2.07v24.83h8.28c1.14,0,2.07,0.93,2.07,2.07C72.42,92.13,71.49,93.05,70.35,93.05z"/>
		<path id="Shape_4_" class="st1" d="M20.69,93.05H10.35c-1.14,0-2.07-0.93-2.07-2.07v-26.9c0-1.14,0.93-2.07,2.07-2.07
			s2.07,0.93,2.07,2.07v24.83h8.28c1.14,0,2.07,0.93,2.07,2.07C22.76,92.13,21.83,93.05,20.69,93.05z"/>
		<path id="Shape_5_" class="st1" d="M70.35,80.64H60c-1.14,0-2.07-0.93-2.07-2.07c0-1.14,0.93-2.07,2.07-2.07h10.35
			c1.14,0,2.07,0.93,2.07,2.07C72.42,79.71,71.49,80.64,70.35,80.64z"/>
		<path id="Shape_6_" class="st1" d="M70.35,66.16H60c-1.14,0-2.07-0.93-2.07-2.07c0-1.14,0.93-2.07,2.07-2.07h10.35
			c1.14,0,2.07,0.93,2.07,2.07C72.42,65.23,71.49,66.16,70.35,66.16z"/>
	</g>
	<path id="Shape_7_" class="st2" d="M60.7,39.13c6.99-8.25,18-11.92,28.54-9.51s18.87,10.49,21.58,20.96
		c2.71,10.47-0.63,21.58-8.68,28.8c-1.2,0.96-1.77,2.49-1.49,4c0.28,1.51,1.38,2.73,2.84,3.19c1.46,0.45,3.06,0.06,4.15-1.02
		c10.35-9.29,14.66-23.57,11.18-37.03c-3.48-13.46-14.18-23.86-27.74-26.96s-27.71,1.62-36.69,12.24c-1.02,1.12-1.35,2.71-0.85,4.15
		c0.5,1.43,1.74,2.48,3.24,2.73C58.25,40.93,59.77,40.33,60.7,39.13L60.7,39.13z"/>
	<path id="Shape_8_" class="st3" d="M75.51,47.8c4.96-3.56,11.77-2.98,16.06,1.36s4.79,11.15,1.18,16.07
		c-0.94,1.31-1.01,3.05-0.19,4.44c0.69,1.2,1.94,1.97,3.32,2.06c1.38,0.09,2.71-0.52,3.55-1.62c6.02-8.2,5.19-19.56-1.96-26.79
		s-18.51-8.19-26.77-2.25c-1.14,0.86-1.75,2.25-1.62,3.68c0.14,1.42,1,2.67,2.28,3.3C72.69,48.74,74.28,48.64,75.51,47.8L75.51,47.8
		z"/>
	<circle id="Oval" class="st4" cx="82.76" cy="57.88" r="4.14"/>
</g>
</svg>
