<?xml version="1.0"?>
<svg xmlns="http://www.w3.org/2000/svg" xmlns:xlink="http://www.w3.org/1999/xlink" xmlns:svgjs="http://svgjs.com/svgjs" version="1.1" width="512" height="512" x="0" y="0" viewBox="0 0 152 152" style="enable-background:new 0 0 512 512" xml:space="preserve" class=""><g><g xmlns="http://www.w3.org/2000/svg" id="Layer_2" data-name="Layer 2"><g id="_13.Notification_Bell" data-name="13.Notification Bell"><path id="icon" d="m76 0a76 76 0 0 0 0 152c2.55 0 5.07-.13 7.56-.37a76 76 0 0 0 -7.56-151.63zm0 121a9.24 9.24 0 0 1 -9.23-9.23h18.46a9.24 9.24 0 0 1 -9.23 9.23zm36.92-13.84h-73.84v-4.62l9.23-9.23v-23.09c0-14.18 7.54-26 20.77-29.15v-3.15a6.92 6.92 0 0 1 13.84 0v3.15c13.23 3.14 20.77 15 20.77 29.15v23.09l9.23 9.23z" fill="#e4e4e4" data-original="#000000" style="" class=""/></g></g></g></svg>
