<?xml version="1.0" encoding="utf-8"?>
<!-- Generator: Adobe Illustrator 19.0.0, SVG Export Plug-In . SVG Version: 6.00 Build 0)  -->
<svg version="1.1" id="Layer_1" xmlns="http://www.w3.org/2000/svg" xmlns:xlink="http://www.w3.org/1999/xlink" x="0px" y="0px"
	 viewBox="-287 410.8 20 20.1" style="enable-background:new -287 410.8 20 20.1;" xml:space="preserve">
<style type="text/css">
	.st0{fill:url(#SVGID_1_);}
	.st1{fill:url(#SVGID_2_);}
</style>
<title></title>
<g id="Layer_2">
	
		<linearGradient id="SVGID_1_" gradientUnits="userSpaceOnUse" x1="-277" y1="413.1057" x2="-277" y2="416.4058" gradientTransform="matrix(1 0 0 -1 0 841.47)">
		<stop  offset="0" style="stop-color:#484849"/>
		<stop  offset="1" style="stop-color:#4F3FA9"/>
	</linearGradient>
	<rect x="-277.8" y="425.1" class="st0" width="1.6" height="3.3"/>
	
		<linearGradient id="SVGID_2_" gradientUnits="userSpaceOnUse" x1="-277" y1="413.0975" x2="-277" y2="429.68" gradientTransform="matrix(1 0 0 -1 0 841.47)">
		<stop  offset="0" style="stop-color:#484849"/>
		<stop  offset="1" style="stop-color:#4F3FA9"/>
	</linearGradient>
	<path class="st1" d="M-272,413.8l-5-2l-5,2v3.1h-3.3v11.6h5.8v-5h5v5h5.8v-11.6h-3.3V413.8z M-281.1,425.1h-1.6v-1.6h1.6V425.1z
		 M-281.1,421.8h-1.6v-1.6h1.6V421.8z M-277.8,421.8h-1.6v-1.6h1.6V421.8z M-277.8,415.2h1.7v3.3h-1.7V415.2z M-274.5,421.8h-1.6
		v-1.6h1.6V421.8z M-271.2,425.1h-1.6v-1.6h1.6V425.1z M-271.2,420.1v1.6h-1.6v-1.6H-271.2z"/>
</g>
</svg>
