<?xml version="1.0" encoding="utf-8"?>
<!-- Generator: Adobe Illustrator 19.0.0, SVG Export Plug-In . SVG Version: 6.00 Build 0)  -->
<svg version="1.1" id="Слой_1" xmlns="http://www.w3.org/2000/svg" xmlns:xlink="http://www.w3.org/1999/xlink" x="0px" y="0px"
	 viewBox="-291 385 24 24" style="enable-background:new -291 385 24 24;" xml:space="preserve">
<style type="text/css">
	.st0{fill:#7F7F7F;}
</style>
<path class="st0" d="M-267,397c0-6.6-5.4-12-12-12s-12,5.4-12,12c0,3.4,1.4,6.4,3.7,8.6c0.1,0.1,0.1,0.1,0.2,0.2
	c2.1,2,5,3.2,8.1,3.2s6-1.2,8.1-3.2c0.1,0,0.1-0.1,0.2-0.2C-268.4,403.4-267,400.4-267,397z M-279,386.5c5.8,0,10.5,4.7,10.5,10.5
	c0,2.5-0.9,4.7-2.3,6.5c-0.7-2.1-2.5-3.7-5-4.5c1.4-1,2.3-2.6,2.3-4.4c0-3-2.5-5.5-5.5-5.5s-5.5,2.5-5.5,5.5c0,1.8,0.9,3.4,2.3,4.4
	c-2.5,0.8-4.4,2.4-5,4.5c-1.4-1.8-2.3-4-2.3-6.5C-289.5,391.2-284.8,386.5-279,386.5z M-283,394.6c0-2.2,1.8-4,4-4s4,1.8,4,4
	s-1.8,4-4,4S-283,396.8-283,394.6z M-286,404.8c0.2-2.7,3.1-4.8,7-4.8s6.7,2,7,4.8c-1.9,1.7-4.3,2.7-7,2.7S-284.1,406.5-286,404.8z"
	/>
</svg>
