<?xml version="1.0" encoding="utf-8"?>
<!-- Generator: Adobe Illustrator 19.0.0, SVG Export Plug-In . SVG Version: 6.00 Build 0)  -->
<svg version="1.1" id="Layer_1" xmlns:svgjs="http://svgjs.com/svgjs"
	 xmlns="http://www.w3.org/2000/svg" xmlns:xlink="http://www.w3.org/1999/xlink" x="0px" y="0px" viewBox="19.2 259 451.8 359.7"
	 style="enable-background:new 19.2 259 451.8 359.7;" xml:space="preserve">
<style type="text/css">
	.st0{fill:#7F7F7F;}
</style>
<g>
	<g>
		<g>
			<path class="st0" d="M437.7,368.2L350.2,272c-17.3-17.3-45.5-17.3-63,0.1c-5.5,5.5-9.3,12.2-11.3,19.2c-17.4-13.3-42.5-12-58.6,4
				c-5.5,5.5-9.3,12.2-11.3,19.2c-17.4-13.3-42.5-12-58.5,4c-5.4,5.4-9.1,11.9-11.2,18.8l-41.2-41.2c-17.3-17.3-45.5-17.3-63,0.1
				c-17.3,17.3-17.3,45.5,0,62.9l158.4,158.4l-94,14.8c-25.4,3.6-44.5,25.7-44.5,51.4c0,19.2,15.7,34.9,34.9,34.9h219.4
				c34.2,0,66.3-13.3,90.5-37.5l36.6-36.6c24.2-24.1,37.4-56.3,37.4-90.4C471,422.3,459.2,391.8,437.7,368.2z M417.1,528.2
				l-36.6,36.6c-19.8,19.8-46.1,30.7-74.1,30.7H87c-6.4,0-11.6-5.2-11.6-11.6c0-14.2,10.6-26.3,24.7-28.3l116.7-18.3
				c4.3-0.7,7.9-3.7,9.3-7.9c1.3-4.1,0.3-8.7-2.8-11.8L48.6,342.8c-8.3-8.3-8.3-21.7,0.1-30.1c4.1-4.1,9.6-6.2,15-6.2
				s10.8,2.1,15,6.2l116.4,116.4c4.5,4.5,11.9,4.5,16.5,0c2.3-2.3,3.4-5.3,3.4-8.2s-1.1-6-3.4-8.2L164,365.1
				c-8.3-8.3-8.3-21.7,0.1-30.1c8.2-8.2,21.7-8.2,30,0l47.6,47.6c4.5,4.5,11.9,4.5,16.5,0c2.3-2.3,3.4-5.3,3.4-8.2s-1.1-6-3.4-8.2
				l-24.3-24.3c-8.3-8.3-8.3-21.7,0.1-30.1c8.2-8.2,21.7-8.2,30,0l24.4,24.4c0,0,0,0,0,0l0,0c0,0,0,0,0,0c0,0,0,0,0,0h0c0,0,0,0,0,0
				c4.6,4.3,11.8,4.2,16.2-0.2c4.5-4.5,4.5-11.9,0-16.5l-1-1c-4-4-6.2-9.3-6.2-15s2.2-11,6.3-15.1c8.3-8.2,21.7-8.2,29.6-0.4
				l87.1,95.8c17.5,19.3,27.2,44.3,27.2,70.4C447.7,482.1,436.9,508.4,417.1,528.2z"/>
		</g>
	</g>
</g>
</svg>
