<?xml version="1.0" encoding="utf-8"?>
<!-- Generator: Adobe Illustrator 19.0.0, SVG Export Plug-In . SVG Version: 6.00 Build 0)  -->
<svg version="1.1" id="Layer_1" xmlns:svgjs="http://svgjs.com/svgjs"
	 xmlns="http://www.w3.org/2000/svg" xmlns:xlink="http://www.w3.org/1999/xlink" x="0px" y="0px" viewBox="-41 164.9 512 512"
	 style="enable-background:new -41 164.9 512 512;" xml:space="preserve">
<style type="text/css">
	.st0{fill:#7F7F7F;}
</style>
<g>
	<g>
		<g>
			<g>
				<path class="st0" d="M451,164.9H-21c-11,0-20,9-20,20c0,13.9,0,459.1,0,472c0,11,9,20,20,20h472c11,0,20-9,20-20
					c0-12.8,0-458.2,0-472C471,173.8,462,164.9,451,164.9z M431,636.9H-1v-86h81h270h81V636.9z M215,415.9
					c56.6,0,103.8,41.1,113.3,95H101.7C111.2,457,158.4,415.9,215,415.9z M167.5,328.4c0-26.2,21.3-47.5,47.5-47.5
					s47.5,21.3,47.5,47.5c0,26.2-21.3,47.5-47.5,47.5S167.5,354.6,167.5,328.4z M431,510.9h-62.3c-7-54.4-42.5-100.1-90.9-121.7
					c15.3-15.8,24.7-37.2,24.7-60.8c0-48.2-39.3-87.5-87.5-87.5s-87.5,39.3-87.5,87.5c0,23.6,9.4,45.1,24.7,60.8
					c-48.4,21.6-83.8,67.2-90.9,121.7H-1v-306h432V510.9z"/>
			</g>
		</g>
	</g>
</g>
</svg>
