<?xml version="1.0" encoding="utf-8"?>
<!-- Generator: Adobe Illustrator 24.1.0, SVG Export Plug-In . SVG Version: 6.00 Build 0)  -->
<svg version="1.1" id="Layer_1" xmlns="http://www.w3.org/2000/svg" xmlns:xlink="http://www.w3.org/1999/xlink" x="0px" y="0px"
	 viewBox="0 0 40 25" style="enable-background:new 0 0 40 25;" xml:space="preserve">
<style type="text/css">
	.st0{fill:#7F7F7F;}
</style>
<g>
	<g>
		<path class="st0" d="M39.29,11.74C38.94,11.26,30.62,0.05,20,0.05S1.06,11.26,0.71,11.74c-0.33,0.45-0.33,1.07,0,1.52
			C1.06,13.74,9.38,24.95,20,24.95s18.94-11.21,19.29-11.69C39.62,12.81,39.62,12.19,39.29,11.74z M20,22.38
			c-7.82,0-14.6-7.44-16.61-9.88c2-2.44,8.77-9.87,16.61-9.87c7.82,0,14.6,7.44,16.61,9.88C34.6,14.94,27.84,22.38,20,22.38z"/>
	</g>
</g>
<g>
	<g>
		<path class="st0" d="M20,4.77c-4.26,0-7.73,3.47-7.73,7.73s3.47,7.73,7.73,7.73s7.73-3.47,7.73-7.73S24.26,4.77,20,4.77z
			 M20,17.65c-2.84,0-5.15-2.31-5.15-5.15S17.16,7.35,20,7.35s5.15,2.31,5.15,5.15S22.84,17.65,20,17.65z"/>
	</g>
</g>
</svg>
