<?xml version="1.0" encoding="utf-8"?>
<!-- Generator: Adobe Illustrator 19.0.0, SVG Export Plug-In . SVG Version: 6.00 Build 0)  -->
<svg version="1.1" xmlns="http://www.w3.org/2000/svg" xmlns:xlink="http://www.w3.org/1999/xlink" x="0px" y="0px"
	 viewBox="-281 404.9 32 32" style="enable-background:new -281 404.9 32 32;" xml:space="preserve">
<style type="text/css">
	.st0{fill:#FFFFFF;}
	.st1{fill:#4B505B;}
</style>
<g id="Layer_3">
	<rect x="-278.5" y="410.2" class="st0" width="27" height="22.1"/>
</g>
<g id="Layer_2">
	<g>
		<path class="st1" d="M-255,408.2h-20c-3,0-5.5,2.5-5.5,5.5V428c0,3,2.5,5.5,5.5,5.5h20c3,0,5.5-2.5,5.5-5.5v-14.3
			C-249.5,410.7-252,408.2-255,408.2z M-255,430.5h-20c-1.4,0-2.5-1.1-2.5-2.5v-14.3c0-1.4,1.1-2.5,2.5-2.5h20
			c1.4,0,2.5,1.1,2.5,2.5v0.2h-7.1c-3.8,0-6.9,3.1-6.9,6.9c0,3.8,3.1,6.9,6.9,6.9h7.1v0.2C-252.5,429.4-253.6,430.5-255,430.5z
			 M-252.5,424.8h-7.1c-2.2,0-3.9-1.8-3.9-3.9c0-2.2,1.8-3.9,3.9-3.9h7.1V424.8z"/>
		<path class="st1" d="M-261.9,420.9c0,1.6,1.3,2.9,2.9,2.9s2.9-1.3,2.9-2.9c0-1.6-1.3-2.9-2.9-2.9S-261.9,419.3-261.9,420.9z"/>
	</g>
</g>
</svg>
